Coordinates
version=1
nRows=10
nColumns=40
inDegrees=yes

Units are S.I. units (second, meters, Newtons, ...)
Angles are in degrees.

endheader
time	pelvis_tilt	pelvis_list	pelvis_rotation	pelvis_tx	pelvis_ty	pelvis_tz	hip_flexion_r	hip_adduction_r	hip_rotation_r	knee_angle_r	knee_angle_r_beta	ankle_angle_r	subtalar_angle_r	mtp_angle_r	hip_flexion_l	hip_adduction_l	hip_rotation_l	knee_angle_l	knee_angle_l_beta	ankle_angle_l	subtalar_angle_l	mtp_angle_l	lumbar_extension	lumbar_bending	lumbar_rotation	arm_flex_r	arm_add_r	arm_rot_r	elbow_flex_r	pro_sup_r	wrist_flex_r	wrist_dev_r	arm_flex_l	arm_add_l	arm_rot_l	elbow_flex_l	pro_sup_l	wrist_flex_l	wrist_dev_l
     44.60750000	     -8.34466434	     -5.50640410	     -0.06528370	      1.02221865	      0.93126773	      0.38510392	     39.50264129	     -7.01343557	     -6.07698885	     64.57399973	     64.57399973	      1.45666625	    -17.65269255	      4.94442848	     15.13977298	     -4.44611331	     -8.02313332	     20.27778284	     20.27778284	     16.12696518	     -3.83627969	      1.40999035	    -12.56099998	      5.32731884	      1.08853255	     -3.66551042	    -15.53197542	      6.26714046	     27.22307515	     46.54737811	      0.00000000	      0.00000000	     10.79972831	    -18.05873432	     -7.61028978	     71.73988675	     47.33253180	      0.00000000	      0.00000000
     44.61985714	     -8.36122010	     -5.44765006	     -0.10376455	      1.02106761	      0.93168330	      0.38533148	     40.06580362	     -6.99384744	     -6.07448994	     62.83410494	     62.83410494	      1.37117582	    -17.40595831	      4.72416879	     14.45512420	     -4.46781508	     -8.49191199	     19.82328009	     19.82328009	     16.23190428	     -3.03437649	      1.09165932	    -12.60788336	      5.18284630	      0.89292507	     -5.11184428	    -15.64522379	      5.89442985	     27.26523527	     46.54870983	      0.00000000	      0.00000000	     11.55357156	    -18.50638073	     -7.96045244	     73.60374258	     47.40352346	      0.00000000	      0.00000000
     44.63221429	     -8.44277430	     -5.39935545	     -0.10257853	      1.01990482	      0.93190129	      0.38564499	     40.54785073	     -6.96342821	     -6.14855822	     60.82480151	     60.82480151	      1.20537054	    -17.11755860	      4.29157289	     13.88897105	     -4.52191393	     -8.97908335	     19.44613704	     19.44613704	     16.29854575	     -2.13266058	      0.57166072	    -12.57363987	      5.05926025	      0.60738418	     -6.59650100	    -15.74490114	      5.31992264	     27.81214686	     46.53579112	      0.00000000	      0.00000000	     12.18424374	    -18.98147314	     -8.27641323	     75.55904918	     47.47952600	      0.00000000	      0.00000000
     44.64457143	     -8.48575607	     -5.29234857	     -0.10617800	      1.01882068	      0.93218369	      0.38609047	     40.85268196	     -6.95536105	     -6.23976263	     58.58455792	     58.58455792	      1.15133917	    -16.72938314	      4.10390245	     13.21492892	     -4.48077021	     -9.39229346	     18.94598747	     18.94598747	     16.34591029	     -1.40948121	      0.26250244	    -12.57419756	      4.84721402	      0.47493501	     -7.94500484	    -15.81939064	      5.02159995	     28.03568070	     46.52325161	      0.00000000	      0.00000000	     13.09753188	    -19.30965943	     -8.53498982	     76.98536613	     47.53795104	      0.00000000	      0.00000000
     44.65692857	     -8.61858527	     -5.19134788	     -0.07842899	      1.01770451	      0.93224920	      0.38658441	     41.10982898	     -6.95291706	     -6.44979782	     56.09238531	     56.09238531	      1.12604452	    -16.20214476	      4.13746927	     12.69871645	     -4.42948445	     -9.66310869	     18.54329503	     18.54329503	     16.40470499	     -0.85088935	      0.05624904	    -12.44036305	      4.68128700	      0.17959126	     -9.03355859	    -15.86998432	      4.87620082	     28.10684182	     46.51463412	      0.00000000	      0.00000000	     13.93175274	    -19.66290451	     -8.72092966	     77.96762182	     47.57722383	      0.00000000	      0.00000000
     44.66928571	     -8.69512915	     -5.00436040	     -0.09301442	      1.01671068	      0.93217123	      0.38732023	     41.16157999	     -6.96215613	     -6.63401851	     53.34709517	     53.34709517	      0.92344801	    -15.66853549	      3.31608874	     12.10265524	     -4.39342859	    -10.40670340	     18.15933535	     18.15933535	     16.38647052	      0.35658948	     -0.80909144	    -12.46872271	      4.33450501	      0.14390949	    -10.62514314	    -15.94895806	      4.21245736	     29.55625480	     46.46221648	      0.00000000	      0.00000000	     14.60830269	    -20.02740724	     -8.74206402	     79.96789925	     47.63836284	      0.00000000	      0.00000000
     44.68164286	     -8.73028552	     -4.79486584	     -0.09055190	      1.01585660	      0.93212459	      0.38810036	     40.99521069	     -6.97447155	     -6.91959113	     50.35524816	     50.35524816	      0.95279001	    -14.87293718	      3.10711514	     11.38397111	     -4.23086969	    -10.76735887	     17.62052980	     17.62052980	     16.41152027	      0.96733422	     -1.08774298	    -12.46571685	      3.98997295	      0.00870884	    -11.67661399	    -15.94879976	      4.00177467	     29.94884954	     46.43964228	      0.00000000	      0.00000000	     15.52257377	    -20.27342575	     -8.83813617	     80.91526497	     47.67791118	      0.00000000	      0.00000000
     44.69400000	     -8.90382099	     -4.58968456	     -0.04799650	      1.01502376	      0.93173324	      0.38902277	     40.80738541	     -6.95319280	     -7.31640217	     47.12401794	     47.12401794	      1.03797539	    -14.02157275	      3.20837723	     10.88826024	     -4.07661330	    -11.01350263	     17.21063681	     17.21063681	     16.49273623	      1.47974168	     -1.29712572	    -12.25484742	      3.63264750	     -0.24855608	    -12.47377682	    -15.89247724	      3.91167763	     30.13835570	     46.42555801	      0.00000000	      0.00000000	     16.31552123	    -20.55806918	     -8.91293307	     81.64252310	     47.70572119	      0.00000000	      0.00000000
     44.70635714	     -8.86417438	     -4.28513843	     -0.02114183	      1.01453273	      0.93147535	      0.39001719	     40.19476407	     -7.01153452	     -7.83239108	     43.65116264	     43.65116264	      1.15497331	    -12.80078045	      3.06666414	     10.03450690	     -3.83693081	    -11.52501926	     16.62842356	     16.62842356	     16.55453543	      2.38128969	     -1.70303882	    -12.32969083	      3.17782537	     -0.29362414	    -13.42408458	    -15.87734156	      3.73374570	     30.75687560	     46.39436471	      0.00000000	      0.00000000	     17.03624569	    -20.68779913	     -8.82409710	     82.71735403	     47.73212763	      0.00000000	      0.00000000
     44.71871429	     -8.91347724	     -3.91958627	     -0.00795782	      1.01416062	      0.93073932	      0.39125107	     39.53951442	     -7.06012271	     -8.41206597	     40.02159379	     40.02159379	      1.16060051	    -11.53020658	      2.59419741	      9.29059265	     -3.56848691	    -12.15165982	     16.09359073	     16.09359073	     16.56753090	      3.43047294	     -2.46223360	    -12.25680042	      2.59967342	     -0.29896032	    -14.52578043	    -15.79122910	      3.42448382	     32.23836829	     46.32620141	      0.00000000	      0.00000000	     17.79598019	    -20.97638329	     -8.54789351	     83.84504099	     47.75627148	      0.00000000	      0.00000000
